<svg id="Capa_1" enable-background="new 0 0 512 512" height="512" viewBox="0 0 512 512" width="512" xmlns="http://www.w3.org/2000/svg"><g><g><g><g><path d="m224.173 473.538c-51.283 51.282-134.428 51.282-185.711 0-51.282-51.283-51.282-134.428 0-185.711l21.362-21.362 88.556-79.711 118.085-126.93 21.362-21.362c51.283-51.283 134.428-51.283 185.711 0 51.282 51.282 51.282 134.428 0 185.71l-21.362 21.362-96.197 87.253-110.444 119.389z" fill="#f0c5ac"/><path d="m203.291 308.709c-51.283-51.283-51.283-134.428 0-185.711l-164.829 164.829c-51.282 51.283-51.282 134.428 0 185.711 51.283 51.283 134.428 51.283 185.711 0l164.827-164.827c-51.283 51.281-134.427 51.28-185.709-.002z" fill="#edb697"/><path d="m109.882 124.683h292.235v262.635h-292.235z" fill="#f4d4c3" transform="matrix(.707 -.707 .707 .707 -106.039 256)"/><path d="m59.824 266.465 185.71 185.711 102.562-102.561 40.902-40.902c-51.283 51.279-134.426 51.278-185.707-.003-51.281-51.281-51.283-134.422-.005-185.705z" fill="#f0c5ac"/></g></g><g><g fill="#ffa1ac"><ellipse cx="195.127" cy="316.873" rx="31.765" ry="25.296" transform="matrix(.707 -.707 .707 .707 -166.911 230.784)"/><ellipse cx="316.873" cy="195.127" rx="31.765" ry="25.296" transform="matrix(.707 -.707 .707 .707 -45.166 281.214)"/></g><g><path d="m190.779 294.07c-1.977 0-3.955-.754-5.464-2.263l-8.741-8.741c-3.017-3.018-3.017-7.909 0-10.928 3.018-3.016 7.909-3.016 10.928 0l8.741 8.742c3.017 3.018 3.017 7.909 0 10.927-1.51 1.509-3.487 2.263-5.464 2.263z" fill="#6a647f"/></g><g><path d="m227.538 258.888c-.717 0-1.436-.025-2.157-.074-4.258-.293-7.472-3.981-7.179-8.237.293-4.257 3.981-7.459 8.238-7.179 4.589.317 9.096-1.365 12.344-4.614 3.247-3.247 4.93-7.747 4.614-12.344-.293-4.257 2.921-7.945 7.179-8.237 4.245-.286 7.946 2.921 8.237 7.179.622 9.055-2.696 17.923-9.103 24.33-5.897 5.896-13.879 9.176-22.173 9.176z" fill="#6a647f"/></g><g><path d="m277.658 206.704c-1.978 0-3.955-.755-5.464-2.264-8.598-8.599-8.598-22.59 0-31.187 8.6-8.598 22.587-8.598 31.187 0 3.017 3.018 3.017 7.91 0 10.928-3.018 3.016-7.909 3.016-10.927 0-1.246-1.247-2.904-1.934-4.666-1.934-1.763 0-3.42.687-4.666 1.934-2.573 2.572-2.573 6.76 0 9.334 3.017 3.017 3.017 7.909-.001 10.926-1.508 1.509-3.486 2.263-5.463 2.263z" fill="#6a647f"/></g></g></g><g fill="#f4d4c3"><g><g><path d="m85.083 399.288c-3.017 3.017-7.909 3.017-10.927 0-3.017-3.017-3.017-7.909 0-10.927 3.017-3.017 7.909-3.017 10.927 0 3.017 3.018 3.017 7.91 0 10.927z"/><path d="m106.936 421.141c-3.017 3.017-7.909 3.017-10.927 0-3.017-3.017-3.017-7.909 0-10.927 3.017-3.017 7.909-3.017 10.927 0 3.018 3.018 3.018 7.91 0 10.927z"/><circle cx="123.326" cy="437.532" r="7.726"/></g><g><path d="m96.009 366.508c-3.017 3.017-7.909 3.017-10.927 0-3.017-3.017-3.017-7.909 0-10.927 3.017-3.017 7.909-3.017 10.927 0s3.018 7.91 0 10.927z"/><circle cx="112.4" cy="382.898" r="7.726"/><path d="m139.716 410.215c-3.017 3.017-7.909 3.017-10.927 0-3.017-3.017-3.017-7.909 0-10.927 3.017-3.017 7.909-3.017 10.927 0s3.018 7.909 0 10.927z"/><path d="m161.57 432.068c-3.017 3.017-7.909 3.017-10.927 0-3.017-3.017-3.017-7.909 0-10.927 3.017-3.017 7.909-3.017 10.927 0 3.017 3.018 3.017 7.91 0 10.927z"/><path d="m52.303 410.215c-3.017 3.017-7.909 3.017-10.927 0-3.017-3.017-3.017-7.909 0-10.927 3.017-3.017 7.909-3.017 10.927 0 3.017 3.017 3.017 7.909 0 10.927z"/><circle cx="68.693" cy="426.605" r="7.726"/><path d="m96.009 453.922c-3.017 3.017-7.909 3.017-10.927 0-3.017-3.017-3.017-7.909 0-10.927 3.017-3.017 7.909-3.017 10.927 0s3.018 7.909 0 10.927z"/><path d="m117.863 475.775c-3.017 3.017-7.909 3.017-10.927 0-3.017-3.017-3.017-7.909 0-10.927 3.017-3.017 7.909-3.017 10.927 0 3.017 3.018 3.017 7.91 0 10.927z"/></g></g><g><g><circle cx="388.674" cy="74.469" r="7.726"/><path d="m415.991 101.785c-3.017 3.017-7.909 3.017-10.927 0-3.017-3.017-3.017-7.909 0-10.927 3.017-3.017 7.909-3.017 10.927 0 3.017 3.018 3.017 7.91 0 10.927z"/><path d="m437.844 123.639c-3.017 3.017-7.909 3.017-10.927 0-3.017-3.017-3.017-7.909 0-10.927 3.017-3.017 7.909-3.017 10.927 0 3.017 3.017 3.017 7.909 0 10.927z"/></g><g><path d="m405.064 47.152c-3.017 3.017-7.909 3.017-10.927 0-3.017-3.017-3.017-7.909 0-10.927 3.017-3.017 7.909-3.017 10.927 0 3.017 3.017 3.017 7.909 0 10.927z"/><path d="m426.917 69.005c-3.017 3.017-7.909 3.017-10.927 0-3.017-3.017-3.017-7.909 0-10.927 3.017-3.017 7.909-3.017 10.927 0 3.018 3.018 3.018 7.91 0 10.927z"/><circle cx="443.307" cy="85.395" r="7.726"/><circle cx="465.161" cy="107.249" r="7.726"/><circle cx="355.894" cy="85.395" r="7.726"/><path d="m383.21 112.712c-3.017 3.017-7.909 3.017-10.927 0-3.017-3.017-3.017-7.909 0-10.927 3.017-3.017 7.909-3.017 10.927 0 3.018 3.018 3.018 7.91 0 10.927z"/><path d="m405.064 134.566c-3.017 3.017-7.909 3.017-10.927 0-3.017-3.017-3.017-7.909 0-10.927 3.017-3.017 7.909-3.017 10.927 0 3.017 3.017 3.017 7.909 0 10.927z"/><path d="m426.917 156.419c-3.017 3.017-7.909 3.017-10.927 0-3.017-3.017-3.017-7.909 0-10.927 3.017-3.017 7.909-3.017 10.927 0 3.018 3.018 3.018 7.91 0 10.927z"/></g></g></g></g></svg>