<svg id="Layer_1" enable-background="new 0 0 497 497" height="512" viewBox="0 0 497 497" width="512" xmlns="http://www.w3.org/2000/svg"><path d="m165.691 14.151c-98.416 34.777-165.691 129.877-165.691 234.349 0 97.914 56.637 182.587 138.93 223.083-33.792-248.602 26.761-457.432 26.761-457.432z" fill="#f6a7ae"/><path d="m129.222 279.501c-1.374-2.69-2.73-5.389-4.048-8.105-29.575-60.959-46.008-126.762-57.087-193.312-42.575 45.326-68.087 106.091-68.087 170.416 0 97.914 56.637 182.587 138.93 223.083-9.268-68.182-11.438-133.371-9.708-192.082z" fill="#f1919b"/><path d="m497 248.5c0-108.198-69.157-200.228-165.673-234.342 0 0 66.261 245.252 26.743 457.426 82.293-40.497 138.93-125.17 138.93-223.084z" fill="#99ddfc"/><path d="m332.485 16.919-1.158-2.761c-25.909-9.158-53.782-14.158-82.827-14.158-29.038 0-56.905 4.997-82.809 14.151l-1.176 2.768c-42.91 88.56-93.123 294.883-25.585 454.664 33.054 16.266 70.241 25.417 109.57 25.417s76.516-9.151 109.57-25.417c67.538-159.781 17.325-366.104-25.585-454.664z" fill="#f9ef90"/><path d="m283.184 448.268c-68.364-42.028-123.077-104.872-158.01-176.873-6.033-12.435-11.508-25.075-16.513-37.878-7.154 78.322-1.338 163.29 30.269 238.066 33.054 16.266 70.241 25.417 109.57 25.417 33.571 0 65.571-6.687 94.782-18.756-20.858-7.975-41.098-18.295-60.098-29.976z" fill="#f4d37f"/><g fill="#343941"><path d="m151.353 258.987c-4.142 0-7.5-3.358-7.5-7.5v-15.35c0-4.142 3.358-7.5 7.5-7.5s7.5 3.358 7.5 7.5v15.35c0 4.142-3.358 7.5-7.5 7.5z"/><path d="m345.647 258.987c-4.142 0-7.5-3.358-7.5-7.5v-15.35c0-4.142 3.358-7.5 7.5-7.5s7.5 3.358 7.5 7.5v15.35c0 4.142-3.357 7.5-7.5 7.5z"/><path d="m248.417 268.381c-10.578 0-21.124-3.549-31.794-10.65-3.449-2.294-4.384-6.95-2.089-10.398 2.293-3.449 6.95-4.385 10.398-2.089 16.208 10.784 30.755 10.778 47.17-.022 3.46-2.276 8.111-1.317 10.388 2.144 2.276 3.46 1.317 8.111-2.144 10.388-10.769 7.084-21.365 10.627-31.929 10.627z"/></g></svg>