<?xml version="1.0" encoding="iso-8859-1"?>
<!-- Generator: Adobe Illustrator 19.0.0, SVG Export Plug-In . SVG Version: 6.00 Build 0)  -->
<svg version="1.1" id="Capa_1" xmlns="http://www.w3.org/2000/svg" xmlns:xlink="http://www.w3.org/1999/xlink" x="0px" y="0px"
	 viewBox="0 0 512 512" style="enable-background:new 0 0 512 512;" xml:space="preserve">
<path style="fill:#FADA6D;" d="M306.717,57.095L82.811,138.59l2.302,37.733c0.798,13.079,3.479,25.975,7.961,38.289l71.29,195.869
	c4.512,12.396,10.8,24.07,18.669,34.658l22.25,29.939l223.908-81.496l-2.302-37.733c-0.798-13.079-3.479-25.975-7.961-38.289
	l-71.204-195.632c-4.482-12.314-10.717-23.916-18.513-34.448L306.717,57.095z"/>
<path style="fill:#F2C55A;" d="M388.89,408.25C225.962,390.346,155.412,229.4,139.328,160.048
	c-2.009-8.663,2.76-17.456,11.117-20.497l171.188-62.307l-14.914-20.149L82.811,138.59l2.302,37.733
	c0.798,13.079,3.479,25.975,7.961,38.289l71.29,195.869c4.512,12.396,10.8,24.07,18.668,34.658l22.25,29.939L388.89,408.25
	L388.89,408.25z"/>
<path style="fill:#F4BC48;" d="M426.887,355.849c-0.797-13.079-3.479-25.975-7.961-38.289l-38.06-104.569
	c-40.933,39.654-123.973,53.626-138.858,107.888c-17.562,64.021,28.469,88.267,65.873,116.856l121.308-44.152L426.887,355.849z"/>
<path style="fill:#EBAC40;" d="M238.846,336.592c-6.505,52.519,34.861,75.022,69.036,101.142l81.009-29.485l0,0
	C325.724,401.309,276.451,372.861,238.846,336.592z"/>
<g>
	<path style="fill:#495059;" d="M318.288,369.044c-3.065,0-5.94-1.891-7.049-4.937c-1.417-3.892,0.591-8.196,4.482-9.613
		l53.331-19.411c3.894-1.418,8.197,0.59,9.613,4.483c1.417,3.892-0.591,8.196-4.482,9.613l-53.331,19.411
		C320.006,368.898,319.14,369.044,318.288,369.044z"/>
	<path style="fill:#495059;" d="M354.247,387.891c-3.064,0-5.94-1.891-7.049-4.937c-1.417-3.892,0.591-8.196,4.482-9.613
		l27.635-10.058c3.895-1.418,8.196,0.591,9.613,4.483s-0.591,8.196-4.482,9.613l-27.635,10.058
		C355.966,387.745,355.099,387.891,354.247,387.891z"/>
</g>
<path style="fill:#FFFFFF;" d="M332.838,314.859l-104.349,37.98c-7.955,2.895-16.75-1.206-19.646-9.161l-11.295-31.032
	c-2.895-7.955,1.206-16.75,9.161-19.646l104.349-37.98c7.955-2.895,16.75,1.206,19.646,9.161l11.295,31.032
	C344.894,303.168,340.793,311.964,332.838,314.859z"/>
<path style="fill:#495059;" d="M241.678,321.658c-3.064,0-5.94-1.891-7.049-4.937c-1.417-3.892,0.591-8.196,4.482-9.613
	l56.194-20.453c3.892-1.417,8.196,0.591,9.613,4.483s-0.591,8.196-4.482,9.613l-56.194,20.453
	C243.396,321.512,242.529,321.658,241.678,321.658z"/>
<g>
	<path style="fill:#E8E9EA;" d="M202.759,295.141c-5.265,3.945-7.577,11.004-5.21,17.505l11.295,31.032
		c2.895,7.955,11.691,12.056,19.646,9.161l20.063-7.302C231.026,330.1,215.825,312.909,202.759,295.141z"/>
	<path style="fill:#E8E9EA;" d="M144.466,105.642L144.466,105.642c-21.699,7.898-45.693-3.29-53.591-24.99l-8.927-24.528
		c-7.898-21.699,3.29-45.693,24.99-53.591l0,0c21.699-7.898,45.693,3.29,53.591,24.99l8.928,24.528
		C177.354,73.75,166.166,97.744,144.466,105.642z"/>
</g>
<g>
	<circle style="fill:#C7C9CC;" cx="121.24" cy="41.823" r="14.942"/>
	<path style="fill:#C7C9CC;" d="M86.948,17.912c-7.507,10.785-9.836,24.925-5,38.211l8.927,24.528
		c7.898,21.699,31.891,32.888,53.591,24.99l0,0c8.214-2.989,14.917-8.288,19.654-14.892C120.432,93.333,93.849,51.476,86.948,17.912
		z"/>
	<path style="fill:#C7C9CC;" d="M450.345,422.872l-242.442,88.241c-7.594,2.764-15.99-1.151-18.754-8.745l-1.879-5.163
		c-2.764-7.594,1.151-15.991,8.745-18.755l242.442-88.241c7.594-2.764,15.99,1.151,18.754,8.745l1.879,5.163
		C461.854,411.712,457.939,420.108,450.345,422.872z"/>
	<path style="fill:#C7C9CC;" d="M61.655,109.3l242.441-88.242c7.594-2.764,15.991,1.152,18.754,8.745l1.879,5.163
		c2.764,7.594-1.151,15.991-8.745,18.755l-242.44,88.242c-7.594,2.764-15.99-1.152-18.754-8.745l-1.879-5.163
		C50.146,120.461,54.061,112.064,61.655,109.3z"/>
</g>
<g>
	
		<ellipse transform="matrix(-0.342 -0.9397 0.9397 -0.342 20.6288 466.9717)" style="fill:#EA7786;" cx="173.807" cy="226.263" rx="18.691" ry="23.471"/>
	
		<ellipse transform="matrix(0.342 0.9397 -0.9397 0.342 364.7498 -155.4269)" style="fill:#EA7786;" cx="293.359" cy="182.739" rx="18.691" ry="23.471"/>
</g>
<g>
	<path style="fill:#495059;" d="M180.288,211.561c-3.064,0-5.94-1.891-7.049-4.936l-2.835-7.789
		c-1.417-3.893,0.59-8.196,4.482-9.613c3.894-1.417,8.196,0.59,9.613,4.482l2.835,7.789c1.417,3.893-0.59,8.196-4.482,9.613
		C182.006,211.415,181.14,211.561,180.288,211.561z"/>
	<path style="fill:#495059;" d="M274.13,177.406c-3.065,0-5.94-1.891-7.049-4.937l-2.835-7.789
		c-1.417-3.892,0.591-8.196,4.482-9.613c3.896-1.418,8.197,0.592,9.613,4.483l2.835,7.789c1.417,3.892-0.591,8.196-4.483,9.613
		C275.848,177.26,274.98,177.406,274.13,177.406z"/>
	<path style="fill:#495059;" d="M223.424,201.514c-4.181,0-8.343-1.05-12.089-3.121c-3.625-2.004-4.938-6.567-2.935-10.192
		c2.004-3.625,6.567-4.939,10.192-2.936c2.524,1.396,5.522,1.633,8.227,0.65c2.703-0.984,4.849-3.093,5.886-5.786
		c1.488-3.865,5.828-5.795,9.694-4.304c3.865,1.489,5.792,5.829,4.304,9.694c-2.597,6.742-7.974,12.023-14.753,14.491
		C229.187,201.016,226.301,201.514,223.424,201.514z"/>
</g>
<g>
</g>
<g>
</g>
<g>
</g>
<g>
</g>
<g>
</g>
<g>
</g>
<g>
</g>
<g>
</g>
<g>
</g>
<g>
</g>
<g>
</g>
<g>
</g>
<g>
</g>
<g>
</g>
<g>
</g>
</svg>
