<svg height="512pt" viewBox="0 -21 512.00092 512" width="512pt" xmlns="http://www.w3.org/2000/svg"><path d="m367.597656 367.363281c-4.636718-29.632812-3.5625-66.191406-49.949218-90.050781-45.96875-23.640625-24.296876-74.207031 15.761718-72.890625 40.058594 1.3125 67.074219-24.957031 30.253906-59.105469-33.339843-30.914062 6.097657-92.328125 59.800782-103.667968 7.015625-1.480469 12.910156 5.226562 10.695312 12.046874-14.398437 44.355469 37.65625 77.019532 55.542969 94.90625 19.699219 19.699219 40.058594 52.210938-3.941406 74.042969-43.996094 21.832031-61.730469 53.355469-32.832031 87.503907 28.894531 34.148437-4.597657 61.730468-34.808594 69.609374zm0 0" fill="#8eafe2"/><path d="m301.269531 147.214844c-.542969 4.511718 4.832031 7.34375 8.238281 4.339844 11.421876-10.070313 20.691407-35.484376 6.667969-61.195313-14.503906-26.589844-10.496093-57.722656 1.375-77.308594 3.933594-6.492187-1.933593-14.558593-9.320312-12.808593-27.582031 6.539062-51.5625 25.933593-43.226563 68.542968 8.394532 42.898438 40.621094 42.460938 36.265625 78.429688zm0 0" fill="#8eafe2"/><path d="m383.285156 470.558594h-336.078125c-26.070312 0-47.207031-21.132813-47.207031-47.207032v-21.253906c0-26.070312 21.136719-47.207031 47.207031-47.207031h336.078125c26.070313 0 47.207032 21.136719 47.207032 47.207031v21.253906c0 26.074219-21.136719 47.207032-47.207032 47.207032zm0 0" fill="#fcf2d0"/><path d="m383.285156 470.558594h-336.078125c-26.070312 0-47.207031-21.132813-47.207031-47.207032v-21.253906c0-26.070312 21.136719-47.207031 47.207031-47.207031h336.078125c26.070313 0 47.207032 21.136719 47.207032 47.207031v21.253906c0 26.074219-21.136719 47.207032-47.207032 47.207032zm0 0" fill="#fcf2d0"/><path d="m47.207031 354.890625c-26.070312 0-47.207031 21.136719-47.207031 47.207031v21.253906c0 26.074219 21.136719 47.207032 47.207031 47.207032h142.410157c-50.457032-26.960938-49.484376-82.175782-34.519532-115.667969zm0 0" fill="#f6e3a3"/><path d="m122.941406 412.726562c0-22.328124 5.011719-42.90625 11.269532-57.835937h-87.003907c-26.070312 0-47.207031 21.136719-47.207031 47.207031v21.253906c0 26.074219 21.136719 47.207032 47.207031 47.207032h87.003907c-6.257813-14.929688-11.269532-35.507813-11.269532-57.832032zm0 0" fill="#d2996f"/><path d="m430.492188 423.351562v-21.253906c0-26.070312-21.136719-47.207031-47.210938-47.207031h-28.144531c-5.777344 15.777344-10.113281 36.046875-10.113281 57.832031 0 21.789063 4.335937 42.054688 10.113281 57.835938h28.144531c26.074219 0 47.210938-21.132813 47.210938-47.207032zm0 0" fill="#eda1ab"/><path d="m93.425781 388.089844c0 4.046875-3.28125 7.332031-7.332031 7.332031-4.046875 0-7.328125-3.285156-7.328125-7.332031 0-4.050782 3.28125-7.332032 7.328125-7.332032 4.050781 0 7.332031 3.28125 7.332031 7.332032zm0 0" fill="#e1b89a"/><path d="m43.921875 424.300781c0 4.046875-3.28125 7.332031-7.332031 7.332031-4.046875 0-7.332032-3.285156-7.332032-7.332031 0-4.050781 3.285157-7.332031 7.332032-7.332031 4.050781 0 7.332031 3.28125 7.332031 7.332031zm0 0" fill="#e1b89a"/><path d="m93.425781 441.214844c0 4.046875-3.28125 7.328125-7.332031 7.328125-4.046875 0-7.328125-3.28125-7.328125-7.328125 0-4.050782 3.28125-7.332032 7.328125-7.332032 4.050781 0 7.332031 3.28125 7.332031 7.332032zm0 0" fill="#e1b89a"/><g fill="#e26e7e"><path d="m372.773438 391.257812c-1.917969 0-3.835938-.730468-5.300782-2.199218-2.929687-2.925782-2.929687-7.675782 0-10.605469l6.058594-6.0625c2.929688-2.925781 7.679688-2.925781 10.609375.003906 2.929687 2.929688 2.925781 7.675781 0 10.605469l-6.0625 6.0625c-1.464844 1.464844-3.382813 2.195312-5.304687 2.195312zm0 0"/><path d="m410.207031 420.917969c-1.917969 0-3.839843-.730469-5.304687-2.195313l-6.058594-6.0625c-2.929688-2.929687-2.929688-7.679687 0-10.609375 2.929688-2.925781 7.675781-2.925781 10.605469.003907l6.0625 6.0625c2.929687 2.929687 2.929687 7.675781 0 10.605468-1.464844 1.460938-3.382813 2.195313-5.304688 2.195313zm0 0"/><path d="m380.09375 426.71875h-8.574219c-4.140625 0-7.5-3.359375-7.5-7.5 0-4.144531 3.359375-7.5 7.5-7.5h8.574219c4.140625 0 7.5 3.355469 7.5 7.5 0 4.140625-3.359375 7.5-7.5 7.5zm0 0"/><path d="m392.433594 456.226562c-1.921875 0-3.839844-.734374-5.304688-2.195312l-6.0625-6.066406c-2.929687-2.929688-2.929687-7.675782 0-10.605469 2.929688-2.929687 7.675782-2.929687 10.605469 0l6.0625 6.0625c2.929687 2.929687 2.929687 7.679687 0 10.609375-1.464844 1.460938-3.382813 2.195312-5.300781 2.195312zm0 0"/></g><path d="m208.316406 428.355469c0-8.648438-8.800781-15.65625-19.65625-15.65625-10.859375 0-19.660156 7.007812-19.660156 15.65625 0 8.644531 8.800781 15.652343 19.660156 15.652343 10.855469 0 19.65625-7.007812 19.65625-15.652343zm0 0" fill="#eda1ab"/><path d="m314.871094 428.355469c0-8.648438-8.800782-15.65625-19.660156-15.65625-10.855469 0-19.65625 7.007812-19.65625 15.65625 0 8.644531 8.800781 15.652343 19.65625 15.652343 10.859374 0 19.660156-7.007812 19.660156-15.652343zm0 0" fill="#eda1ab"/><path d="m191.945312 417.371094c-4.140624 0-7.5-3.359375-7.5-7.5v-8.4375c0-4.144532 3.359376-7.5 7.5-7.5 4.144532 0 7.5 3.355468 7.5 7.5v8.4375c0 4.140625-3.355468 7.5-7.5 7.5zm0 0" fill="#4e5660"/><path d="m257.785156 416.328125c0-9.796875-7.097656-17.738281-15.847656-17.738281-8.753906 0-15.851562 7.941406-15.851562 17.738281 0 9.792969 7.097656 17.734375 15.851562 17.734375 8.75 0 15.847656-7.941406 15.847656-17.734375zm0 0" fill="#4e5660"/><path d="m291.925781 417.371094c-4.140625 0-7.5-3.359375-7.5-7.5v-8.4375c0-4.144532 3.359375-7.5 7.5-7.5s7.5 3.355468 7.5 7.5v8.4375c0 4.140625-3.359375 7.5-7.5 7.5zm0 0" fill="#4e5660"/></svg>