<?xml version="1.0" encoding="iso-8859-1"?>
<!-- Generator: Adobe Illustrator 19.0.0, SVG Export Plug-In . SVG Version: 6.00 Build 0)  -->
<svg version="1.1" id="Capa_1" xmlns="http://www.w3.org/2000/svg" xmlns:xlink="http://www.w3.org/1999/xlink" x="0px" y="0px"
	 viewBox="0 0 512.001 512.001" style="enable-background:new 0 0 512.001 512.001;" xml:space="preserve">
<path style="fill:#A67E74;" d="M349.023,149.553l-49.522-25.846L325.37,89.27c4.692-6.246,13.215-8.176,20.14-4.562l9.197,4.8
	c6.925,3.614,10.215,11.711,7.775,19.131L349.023,149.553z"/>
<path style="fill:#FADA6D;" d="M1.141,356.39L1.141,356.39c18.138,44.002,61.03,72.714,108.623,72.714h43.126
	c33.18,0,64.514-15.271,84.958-41.404l0,0c6.066-7.754,17.658-8.162,24.255-0.854l0,0c24.284,26.904,58.829,42.259,95.072,42.259
	h17.004c54.875,0,105.957-27.996,135.481-74.252l0,0c7.701-12.065-4.969-26.771-18.041-20.941l-31.655,14.119
	c-11.002,4.907-22.914,7.443-34.96,7.443l0,0c-42.141,0-78.048-30.597-84.735-72.204l0,0c-2.374-14.773-0.65-29.913,4.985-43.774
	l13.161-32.372c17.215-42.344-15.277-88.263-60.936-86.12l0,0c-21.099,0.99-40.277,12.553-51.002,30.75l-95.442,161.93
	c-15.572,26.421-43.954,42.637-74.623,42.637l0,0c-14.721,0-29.198-3.751-42.066-10.901l-12.856-7.142
	C9.552,331.646-4.063,343.766,1.141,356.39z"/>
<path style="fill:#F2C55A;" d="M262.102,386.845L262.102,386.845c24.284,26.904,58.83,42.259,95.072,42.259h17.004
	c46.721,0,90.683-20.306,120.941-54.886C250.844,469.02,217.958,250.423,250.536,145.724c-1.456,1.92-2.82,3.924-4.06,6.028
	l-95.442,161.93c-15.572,26.421-43.954,42.637-74.623,42.637l0,0c-14.721,0-29.198-3.751-42.066-10.901l-12.856-7.142
	c-11.936-6.631-25.552,5.489-20.348,18.113l0,0c18.138,44.002,61.03,72.714,108.623,72.714h43.126
	c33.18,0,64.514-15.271,84.958-41.404l0,0C243.913,379.945,255.506,379.537,262.102,386.845z"/>
<g>
	<path style="fill:#EBAC40;" d="M248.996,364.304c-4.142,0-7.5-3.358-7.5-7.5c0-20.924,6.167-70.162,29.28-121.977
		c1.689-3.783,6.123-5.481,9.905-3.794c3.782,1.688,5.481,6.122,3.794,9.905c-22.086,49.513-27.979,96.128-27.979,115.867
		C256.496,360.946,253.138,364.304,248.996,364.304z"/>
	<path style="fill:#EBAC40;" d="M137.493,429.104c2.508-3.422,4.222-7.792,5.257-13.08c2.921-14.93-7.79-26.614-26.289-25.64
		s-21.745,6.816-28.236,13.307c-3.816,3.816-4.821,15.259,2.519,23.849c6.223,1.02,12.576,1.564,19.021,1.564L137.493,429.104
		L137.493,429.104z"/>
	<path style="fill:#EBAC40;" d="M388.519,349.521c0.204-0.678,0.366-1.326,0.508-1.961c-11.134-5.148-21.014-12.621-28.99-21.855
		c-14.976-2.029-27.561,3.361-22.722,16.904c4.653,13.024-4.806,23.42,23.932,21.958
		C376.948,363.769,383.919,364.772,388.519,349.521z"/>
</g>
<g>
	
		<ellipse transform="matrix(0.3381 -0.9411 0.9411 0.3381 -6.7696 359.4722)" style="fill:#EA7786;" cx="252.171" cy="184.549" rx="12.654" ry="15.89"/>
	
		<ellipse transform="matrix(-0.3381 0.9411 -0.9411 -0.3381 646.9825 -27.6715)" style="fill:#EA7786;" cx="333.222" cy="213.681" rx="12.654" ry="15.89"/>
</g>
<g>
	<path style="fill:#495059;" d="M265.153,183.305c-0.843,0-1.698-0.143-2.536-0.444c-3.898-1.4-5.923-5.696-4.522-9.594l1.897-5.281
		c1.401-3.899,5.7-5.921,9.595-4.522c3.898,1.4,5.923,5.696,4.523,9.594l-1.898,5.281
		C271.112,181.399,268.228,183.305,265.153,183.305z"/>
	<path style="fill:#495059;" d="M328.78,206.165c-0.843,0-1.698-0.143-2.536-0.444c-3.898-1.4-5.923-5.696-4.522-9.594l1.897-5.281
		c1.401-3.898,5.7-5.922,9.595-4.522c3.898,1.4,5.923,5.696,4.522,9.594l-1.897,5.281
		C334.739,204.259,331.855,206.165,328.78,206.165z"/>
	<path style="fill:#495059;" d="M299.499,199.483c-2.201,0-4.408-0.376-6.525-1.137c-5.255-1.888-9.435-5.958-11.466-11.168
		c-1.505-3.859,0.403-8.207,4.263-9.712c3.855-1.506,8.208,0.403,9.712,4.263c0.268,0.686,0.957,1.924,2.564,2.501
		c1.603,0.575,2.926,0.06,3.57-0.299c3.617-2.019,8.186-0.721,10.204,2.895c2.018,3.617,0.722,8.186-2.896,10.204
		C306.01,198.657,302.762,199.483,299.499,199.483z"/>
</g>
<g>
	<path style="fill:#EBAC40;" d="M198.872,304.843c-1.919,0-3.839-0.733-5.303-2.197c-2.929-2.929-2.929-7.678,0-10.607
		l10.391-10.391c2.929-2.929,7.678-2.929,10.606,0c2.929,2.929,2.929,7.678,0,10.607l-10.391,10.391
		C202.71,304.111,200.791,304.843,198.872,304.843z"/>
	<path style="fill:#EBAC40;" d="M193.991,336.956c-1.919,0-3.839-0.732-5.303-2.197c-2.929-2.929-2.929-7.678,0-10.607
		l10.077-10.077c2.929-2.929,7.678-2.929,10.606,0c2.929,2.929,2.929,7.678,0,10.606l-10.077,10.077
		C197.83,336.223,195.91,336.956,193.991,336.956z"/>
</g>
<g>
</g>
<g>
</g>
<g>
</g>
<g>
</g>
<g>
</g>
<g>
</g>
<g>
</g>
<g>
</g>
<g>
</g>
<g>
</g>
<g>
</g>
<g>
</g>
<g>
</g>
<g>
</g>
<g>
</g>
</svg>
