<?xml version="1.0" encoding="utf-8"?>
<!-- Generator: Adobe Illustrator 26.2.1, SVG Export Plug-In . SVG Version: 6.00 Build 0)  -->
<svg version="1.1" id="Capa_1" xmlns="http://www.w3.org/2000/svg" xmlns:xlink="http://www.w3.org/1999/xlink" x="0px" y="0px"
	 viewBox="0 0 512 512" style="enable-background:new 0 0 512 512;" xml:space="preserve">
<style type="text/css">
	.st0{fill:#99FF99;}
	.st1{fill:#65FC6C;}
	.st2{fill:#F9F7F8;}
	.st3{fill:#495560;}
	.st4{fill:#FFF7E5;}
	.st5{fill:#FFD4A2;}
	.st6{fill:#FFAACB;}
	.st7{fill:#00C8DE;}
	.st8{fill:#29CE69;}
	.st9{fill:#F8D070;}
	.st10{fill:#FF5D9C;}
</style>
<path class="st0" d="M280.8,1.6c91.1,12.1,161.3,90.1,161.3,184.5c0,75.1-44.5,214.4-108.5,284l-119.5-2.7L148.3,67.3L280.8,1.6z"/>
<path class="st1" d="M207.1,211.4c0-81.2,28-155,73.7-209.7C272.7,0.6,264.4,0,256,0C153.2,0,69.9,83.3,69.9,186.1
	S153.2,512,256,512c27.7,0,54-16.2,77.6-41.9C257.6,416.1,207.1,320.4,207.1,211.4L207.1,211.4z"/>
<path class="st2" d="M244.4,56.4c3.8-0.3,7.7-0.5,11.6-0.5c71.8,0,130.2,58.4,130.2,130.2S327.8,316.3,256,316.3
	c-11.7,0-23.1-1.6-33.9-4.5l-61-74l24-142.4L244.4,56.4z"/>
<g>
	<path class="st3" d="M184.6,373.7c-4.3,0-7.7-3.5-7.7-7.7v-13.7c0-4.3,3.5-7.7,7.7-7.7s7.7,3.5,7.7,7.7V366
		C192.4,370.3,188.9,373.7,184.6,373.7z"/>
	<path class="st3" d="M327.4,373.7c-4.3,0-7.7-3.5-7.7-7.7v-13.7c0-4.3,3.5-7.7,7.7-7.7c4.3,0,7.7,3.5,7.7,7.7V366
		C335.1,370.3,331.6,373.7,327.4,373.7z"/>
	<path class="st3" d="M256,382c-9.4,0-18.4-4.1-24.6-11.2c-2.8-3.2-2.5-8.1,0.7-10.9s8.1-2.5,10.9,0.7c3.3,3.8,8,5.9,13,5.9
		s9.7-2.2,13-5.9c2.8-3.2,7.7-3.6,10.9-0.7c3.2,2.8,3.6,7.7,0.7,10.9C274.4,377.9,265.4,382,256,382L256,382z"/>
</g>
<g id="beach-ball">
	<g>
		<path class="st4" d="M339.1,132.6l-5.6,21.5l25.3,112.2c17-22,27.2-49.7,27.2-79.7c0-17.1-3.3-33.3-9.2-48.3l-26-18.3L339.1,132.6
			z"/>
		<path class="st4" d="M282.4,132.6l25.6,26l6.9,107.7l-89.7,47.2c-54.7-13-96.1-60.6-99.9-118.4l75.7-98L282.4,132.6z"/>
		<path class="st4" d="M307.9,67c-16.1-7-33.8-11-52.4-11c-12.3,0-24.3,1.7-35.6,4.9l72.2,42.9l19.8-1l17.3-10L307.9,67z"/>
	</g>
	<path class="st5" d="M146.3,195.1c-0.2-2.8-0.3-5.7-0.3-8.6c0-6.9,0.5-13.6,1.6-20.2l-22.3,28.8c0.4,5.4,1,10.7,2,16
		c1,5.1,2.3,10.3,3.9,15.3c4.2,13.1,10.5,25.5,18.6,36.7c7,9.7,15.3,18.3,24.6,25.7c13.5,10.7,29.1,18.7,45.6,23.4
		c1.7,0.5,3.4,0.9,5.1,1.3l7.6-4C184.8,292.4,149.7,248,146.3,195.1L146.3,195.1z"/>
	<path class="st5" d="M227.6,65.5c4.3-1.8,8.8-3.3,13.3-4.6c8.1-2.3,16.5-3.8,25.1-4.5c-0.1,0-0.5,0-0.8-0.1c-2.5-0.2-5-0.3-7.5-0.3
		c-0.7,0-1.5,0-2.2,0c-8.5,0-16.8,0.8-24.8,2.4c-2.2,0.4-4.4,0.9-6.5,1.4c-1.4,0.4-2.9,0.7-4.3,1.1L227.6,65.5z"/>
	<path class="st6" d="M282.4,132.6c0,0-70.1-0.9-157.1,62.5c-0.2-2.8-0.3-5.7-0.3-8.6c0-59.7,40.1-110.1,94.9-125.6l0,0
		c50.2,13.7,72.2,42.9,72.2,42.9L282.4,132.6z"/>
	<path class="st7" d="M333.6,154.1c0,0,33.4,49.4,25.3,112.2C335,297.1,297.6,317,255.5,317c-10.4,0-20.6-1.2-30.3-3.5
		c72-60.2,82.6-153.7,82.8-154.9L333.6,154.1z"/>
	<path class="st8" d="M311.9,102.8c0,0,0.2-17-3.9-35.8c31.3,13.7,56.2,39.4,68.8,71.3c-22.5-6.6-37.7-5.6-37.7-5.6L311.9,102.8z"/>
	<path class="st9" d="M333.6,154.1c-6.3,6.3-16.1,7.6-25.6,4.5c-5.5-1.8-10.9-5.1-15.6-9.8c-4.9-4.8-8.2-10.5-10-16.2
		c-2.9-9.4-1.5-18.9,4.6-25c1.5-1.5,3.2-2.7,5.1-3.7c5.7-2.9,12.7-3.2,19.8-1c5.8,1.8,11.5,5.1,16.4,10c5.9,5.9,9.5,12.9,10.9,19.8
		C340.7,140.8,339,148.7,333.6,154.1L333.6,154.1z"/>
	<path class="st10" d="M230.8,64.3c-3.5-1.2-7.1-2.3-10.9-3.3c-1.7,0.5-3.4,1-5.1,1.6c-3.4,1.1-6.7,2.3-9.9,3.7
		c-25.9,10.9-47.5,29.9-61.7,53.9c-2.2,3.7-4.3,7.6-6.1,11.6c-7.7,16.7-12.1,35.3-12.1,54.9c0,2.9,0.1,5.7,0.3,8.6
		c7.1-5.2,14-9.9,20.8-14.2C148.4,127.4,182.9,82.2,230.8,64.3z"/>
</g>
</svg>
