<svg id="Capa_1" enable-background="new 0 0 497 497" height="512" viewBox="0 0 497 497" width="512" xmlns="http://www.w3.org/2000/svg"><g><g><path d="m30 60c0-16.542 13.458-30 30-30h118.85v-30h-118.85c-33.137 0-60 26.863-60 60v118.85h30z" fill="#d4d4ff"/><path d="m467 437c0 16.542-13.458 30-30 30h-118.85v30h118.85c33.137 0 60-26.863 60-60v-118.85h-30z" fill="#efedff"/></g><g><g><path d="m473.466 261.334-237.8-237.8-178.599 178.599 204.266 271.332.001.001c15.068 15.069 35.506 23.534 56.816 23.534s41.748-8.465 56.816-23.534l98.5-98.5c15.069-15.069 23.534-35.506 23.534-56.816s-8.465-41.748-23.534-56.816z" fill="#b0ebd8"/></g><path d="m235.666 23.534c-15.069-15.069-35.506-23.534-56.816-23.534s-41.748 8.465-56.816 23.534l-98.5 98.5c-15.069 15.068-23.534 35.506-23.534 56.816s8.465 41.747 23.534 56.816l237.8 237.8c-89.299-134.298-99.114-306.35-25.668-449.932z" fill="#70dcba"/></g><g fill="#30cd9c"><path d="m217.265 76.658c-2.93-2.929-7.678-2.929-10.607 0s-2.929 7.678 0 10.606l203.078 203.078c1.465 1.464 3.385 2.197 5.304 2.197s3.839-.732 5.304-2.197c2.929-2.929 2.929-7.678 0-10.606z"/><path d="m147.265 146.658c-2.93-2.929-7.678-2.929-10.607 0s-2.929 7.678 0 10.606l203.078 203.078c1.465 1.464 3.385 2.197 5.304 2.197s3.839-.732 5.304-2.197c2.929-2.929 2.929-7.678 0-10.606z"/><path d="m87.265 206.658c-2.93-2.929-7.678-2.929-10.607 0s-2.929 7.678 0 10.606l203.078 203.078c1.465 1.464 3.385 2.197 5.304 2.197s3.839-.732 5.304-2.197c2.929-2.929 2.929-7.678 0-10.606z"/><path d="m233.803 61.671c2.929-2.929 2.929-7.678 0-10.607s-7.678-2.929-10.606 0c-2.929 2.929-2.929 7.678 0 10.607 2.928 2.929 7.678 2.929 10.606 0z"/><path d="m304.514 132.382c2.929-2.929 2.929-7.678 0-10.606-2.929-2.929-7.678-2.929-10.607 0s-2.929 7.678 0 10.606c2.929 2.929 7.678 2.929 10.607 0z"/><path d="m375.225 203.093c2.929-2.929 2.929-7.678 0-10.607s-7.678-2.929-10.606 0c-2.929 2.929-2.929 7.678 0 10.607 2.928 2.928 7.677 2.928 10.606 0z"/><path d="m445.936 263.197c-2.929-2.929-7.678-2.929-10.607 0s-2.929 7.677 0 10.606 7.678 2.929 10.607 0c2.928-2.928 2.928-7.678 0-10.606z"/><circle cx="171.789" cy="42.368" r="7.5"/><circle cx="454.632" cy="325.211" r="7.5"/><path d="m172.486 101.775c-2.929 2.929-2.929 7.678 0 10.606 2.929 2.929 7.678 2.929 10.607 0s2.929-7.678 0-10.606c-2.929-2.929-7.678-2.928-10.607 0z"/><path d="m384.618 313.907c-2.929 2.929-2.929 7.678 0 10.607s7.678 2.929 10.606 0c2.929-2.929 2.929-7.678 0-10.607-2.929-2.928-7.677-2.928-10.606 0z"/><path d="m112.382 112.382c2.929-2.929 2.929-7.678 0-10.606-2.929-2.929-7.677-2.929-10.606 0s-2.929 7.678 0 10.606c2.928 2.929 7.677 2.929 10.606 0z"/><path d="m384.618 384.618c-2.929 2.929-2.929 7.677 0 10.606s7.678 2.929 10.606 0 2.929-7.678 0-10.606c-2.929-2.929-7.677-2.929-10.606 0z"/><path d="m112.382 183.093c2.929-2.929 2.929-7.678 0-10.607s-7.677-2.929-10.606 0-2.929 7.678 0 10.607c2.928 2.928 7.677 2.928 10.606 0z"/><path d="m183.093 253.803c2.929-2.929 2.929-7.678 0-10.606-2.929-2.929-7.678-2.929-10.607 0s-2.929 7.677 0 10.606 7.678 2.929 10.607 0z"/><path d="m253.803 324.514c2.929-2.929 2.929-7.678 0-10.607s-7.678-2.929-10.606 0c-2.929 2.929-2.929 7.678 0 10.607 2.928 2.929 7.678 2.929 10.606 0z"/><path d="m324.514 395.225c2.929-2.929 2.929-7.678 0-10.606-2.929-2.929-7.678-2.929-10.607 0s-2.929 7.677 0 10.606c2.929 2.928 7.678 2.928 10.607 0z"/><path d="m37.065 166.486c-2.929 2.929-2.929 7.678 0 10.607s7.678 2.929 10.607 0 2.929-7.678 0-10.607c-2.93-2.929-7.678-2.929-10.607 0z"/><path d="m319.907 449.329c-2.929 2.929-2.929 7.678 0 10.607s7.678 2.929 10.607 0 2.929-7.678 0-10.607c-2.929-2.93-7.678-2.929-10.607 0z"/><path d="m86.42 258.552c-2.929 2.929-2.929 7.677 0 10.606s7.678 2.929 10.607 0 2.929-7.678 0-10.606c-2.929-2.929-7.678-2.929-10.607 0z"/><path d="m157.131 329.263c-2.929 2.929-2.929 7.678 0 10.606 2.929 2.929 7.678 2.929 10.606 0 2.929-2.929 2.929-7.678 0-10.606-2.929-2.93-7.677-2.929-10.606 0z"/><path d="m227.841 399.974c-2.929 2.929-2.929 7.677 0 10.606s7.678 2.929 10.607 0 2.929-7.678 0-10.606c-2.929-2.93-7.677-2.93-10.607 0z"/></g><g><g><g><g><ellipse cx="212.035" cy="171.788" fill="#ff8e9e" rx="23.515" ry="29.529" transform="matrix(.709 -.706 .706 .709 -59.43 199.652)"/></g><g><ellipse cx="324.964" cy="285.212" fill="#ff8e9e" rx="23.515" ry="29.529" transform="matrix(.709 -.706 .706 .709 -106.556 312.377)"/></g></g></g><g fill="#313d40"><path d="m250.579 157.983c-2.93-2.928-7.678-2.928-10.607 0l-8.485 8.485c-2.929 2.93-2.929 7.678 0 10.607 2.931 2.929 7.678 2.928 10.607 0l8.485-8.485c2.929-2.929 2.929-7.677 0-10.607z"/><path d="m338.895 246.299c-2.93-2.928-7.678-2.928-10.607 0l-8.485 8.485c-2.929 2.93-2.929 7.678 0 10.607 2.931 2.929 7.678 2.928 10.607 0l8.485-8.485c2.928-2.929 2.928-7.677 0-10.607z"/><path d="m291.158 236.258c-2.713 2.713-7.126 2.711-9.837 0-2.719-2.717-2.72-7.118 0-9.836 2.929-2.93 2.929-7.678 0-10.607-2.93-2.928-7.678-2.928-10.607 0-2.717 2.719-7.118 2.72-9.836 0-2.719-2.717-2.72-7.118 0-9.836 2.929-2.93 2.929-7.678 0-10.607-2.93-2.928-7.678-2.928-10.607 0-13.297 13.297-4.719 36.183 14.091 37.402 1.234 19.002 24.236 27.254 37.402 14.092 2.93-2.929 2.93-7.678.001-10.606s-7.678-2.931-10.607-.002z"/></g></g></g></svg>