<svg id="Capa_1" enable-background="new 0 0 497 497" height="512" viewBox="0 0 497 497" width="512" xmlns="http://www.w3.org/2000/svg"><g><path d="m485.14 177.977-166.117-166.117c-15.814-15.814-41.453-15.814-57.267 0l-16.012 16.012c-10.778 10.778-14.423 26.703-9.644 41.176 8.741 26.475 16.345 73.628-13.384 123.911l81.325 81.325c50.283-29.73 97.436-22.125 123.911-13.384 14.474 4.779 30.398 1.134 41.176-9.644l16.012-16.012c15.813-15.814 15.813-41.453 0-57.267z" fill="#7a8fa4"/><path d="m222.715 192.96-191.666 191.666c-22.749 22.749-33.936 54.599-30.409 86.578 1.46 13.241 11.915 23.696 25.156 25.156 31.979 3.527 63.828-7.66 86.578-30.409l191.666-191.666z" fill="#879caf"/><g><g><path d="m289.167 93.791c-2.929-2.929-2.929-7.678 0-10.606l10.957-10.957c2.929-2.929 7.678-2.929 10.606 0 2.929 2.929 2.929 7.678 0 10.606l-10.957 10.957c-2.929 2.929-7.677 2.929-10.606 0z" fill="#334151"/></g><g><path d="m403.208 207.833c-2.929-2.929-2.929-7.678 0-10.606l10.957-10.957c2.93-2.929 7.678-2.929 10.607 0s2.929 7.678 0 10.606l-10.957 10.957c-2.929 2.929-7.677 2.929-10.607 0z" fill="#334151"/></g><g><path d="m339.665 157.335c-7.294-7.295-11.071-17.392-10.363-27.7.284-4.132 3.865-7.258 7.996-6.969 4.133.284 7.252 3.864 6.969 7.996-.411 5.982 1.778 11.838 6.005 16.066 4.228 4.227 10.087 6.415 16.065 6.005 4.125-.275 7.713 2.836 7.996 6.969.284 4.132-2.836 7.712-6.969 7.996-10.321.707-20.41-3.074-27.699-10.363z" fill="#334151"/></g></g><path d="m25.796 496.36c2.09.231 4.18.395 6.266.5 13.149-56.971 45.682-116.04 95.798-166.156 43.393-43.393 93.498-73.598 143.142-89.459l-48.287-48.287-191.666 191.668c-22.749 22.75-33.936 54.599-30.409 86.578 1.46 13.242 11.915 23.696 25.156 25.156z" fill="#7a8fa4"/><path d="m303.596 250.261-74.004-54.289c-15.116-11.089-36.359-7.825-47.448 7.291-8.604 11.728-8.568 27.143-1.059 38.645 2.169 3.322 4.962 6.319 8.35 8.804l74.005 54.29c15.116 11.089 36.359 7.824 47.448-7.292 11.089-15.115 7.829-36.358-7.292-47.449z" fill="#a6b6c4"/><path d="m225.696 328.16-74.004-54.289c-15.116-11.089-36.359-7.825-47.448 7.291-8.604 11.728-8.568 27.143-1.059 38.645 2.169 3.322 4.963 6.319 8.35 8.804l74.005 54.29c15.116 11.089 36.359 7.825 47.448-7.292 11.089-15.115 7.83-36.357-7.292-47.449z" fill="#a6b6c4"/><path d="m147.797 406.06-74.004-54.29c-15.116-11.089-36.359-7.825-47.448 7.291-8.604 11.728-8.568 27.143-1.059 38.645 2.169 3.322 4.963 6.319 8.35 8.804l74.005 54.29c15.116 11.089 36.359 7.824 47.448-7.292 11.089-15.115 7.83-36.357-7.292-47.448z" fill="#a6b6c4"/><g fill="#879caf"><path d="m33.635 406.51 25.066 18.388c10.022-19.563 22.255-38.823 36.625-57.331l-21.533-15.797c-15.116-11.089-36.359-7.825-47.448 7.291-8.604 11.728-8.568 27.143-1.059 38.645 2.168 3.322 4.962 6.319 8.349 8.804z"/><path d="m111.535 328.611 10.696 7.847c1.853-1.929 3.726-3.849 5.63-5.752 14.903-14.904 30.603-28.238 46.8-39.985l-22.968-16.849c-15.116-11.089-36.359-7.825-47.448 7.291-8.604 11.728-8.568 27.143-1.059 38.645 2.167 3.321 4.961 6.318 8.349 8.803z"/><path d="m189.434 250.711 22.287 16.35c24.305-13.501 49.203-23.56 73.816-30.048l-55.946-41.042c-15.116-11.089-36.359-7.825-47.448 7.291-8.604 11.728-8.568 27.143-1.059 38.645 2.168 3.323 4.962 6.32 8.35 8.804z"/></g></g></svg>