<svg height="511pt" viewBox="1 1 511 511.99948" width="511pt" xmlns="http://www.w3.org/2000/svg"><path d="m263.933594 248.492188c-29.980469-30.304688-48.6875-64.539063-59.910156-93.042969l-139.753907 139.75 153.027344 153.027343 110.742187-110.746093c-11.378906-28.230469-36.382812-60.964844-64.105468-88.988281zm0 0" fill="#81d9e7"/><path d="m204.023438 155.449219-139.753907 139.75 50.488281 50.488281 125.191407-125.191406c-16.519531-22.28125-28.058594-45.070313-35.925781-65.046875zm0 0" fill="#3ccbde"/><path d="m378.0625 173.871094-39.433594-39.433594 126.269532-126.269531c10.890624-10.890625 28.542968-10.890625 39.433593 0 10.890625 10.886719 10.890625 28.542969 0 39.429687zm0 0" fill="#a7b6c5"/><path d="m133.9375 325.042969 53.515625 53.515625-59.339844 59.339844-53.515625-53.515626zm0 0" fill="#3ccbde"/><path d="m451.578125 148.300781-87.378906-87.378906c-18.128907-18.128906-47.519531-18.128906-65.644531 0l-101.570313 101.566406c8.371094 25.585938 25.332031 59.289063 59.703125 93.324219 36.09375 35.75 54.007812 67.585938 62.898438 90.128906l131.992187-131.992187c18.128906-18.128907 18.128906-47.519531 0-65.648438zm0 0" fill="#ffb3c2"/><path d="m414.683594 111.40625-50.484375-50.484375c-18.128907-18.128906-47.519531-18.128906-65.644531 0l-101.570313 101.566406c6.085937 18.605469 16.71875 41.503907 35.277344 65.695313l116.777343-116.777344c18.128907-18.128906 47.515626-18.128906 65.644532 0zm0 0" fill="#ff899f"/><path d="m230.328125 461.257812-179.089844-179.089843c-13.472656-13.472657-13.472656-35.324219 0-48.796875 13.476563-13.476563 35.324219-13.476563 48.800781 0l179.089844 179.089844c13.476563 13.476562 13.476563 35.324218 0 48.796874-13.476562 13.476563-35.324218 13.476563-48.800781 0zm0 0" fill="#b5e9f1"/><path d="m96.261719 278.390625c13.476562-13.472656 35.324219-13.472656 48.800781 0l-45.023438-45.019531c-13.476562-13.476563-35.324218-13.476563-48.800781 0-13.472656 13.472656-13.472656 35.324218 0 48.796875l45.023438 45.023437c-13.476563-13.476562-13.476563-35.324218 0-48.800781zm0 0" fill="#81d9e7"/><path d="m100.476562 502.453125-90.429687-90.433594c-12.730469-12.726562-12.730469-33.363281 0-46.089843 12.726563-12.730469 33.363281-12.730469 46.09375 0l90.429687 90.429687c12.726563 12.726563 12.726563 33.367187 0 46.09375-12.730468 12.730469-33.367187 12.730469-46.09375 0zm0 0" fill="#b5e9f1"/><path d="m49.605469 405.488281c12.726562-12.726562 33.363281-12.726562 46.09375 0l-39.558594-39.558593c-12.730469-12.726563-33.367187-12.726563-46.09375 0-12.730469 12.726562-12.730469 33.363281 0 46.09375l39.558594 39.558593c-12.730469-12.730469-12.730469-33.367187 0-46.09375zm0 0" fill="#81d9e7"/><g fill="#454545"><path d="m374.824219 227.71875c-3.015625-3.015625-3.015625-7.910156 0-10.925781l9.070312-9.070313c3.015625-3.019531 7.910157-3.019531 10.925781 0 3.019532 3.015625 3.019532 7.910156 0 10.925782l-9.070312 9.070312c-3.015625 3.019531-7.90625 3.019531-10.925781 0zm0 0"/><path d="m284.78125 137.675781c-3.019531-3.019531-3.019531-7.910156 0-10.929687l9.066406-9.070313c3.019532-3.015625 7.910156-3.015625 10.929688 0 3.015625 3.019531 3.015625 7.910157 0 10.929688l-9.070313 9.070312c-3.019531 3.015625-7.910156 3.015625-10.925781 0zm0 0"/><path d="m344.363281 190.035156c7.707031-7.707031 9.050781-18.855468 3-24.90625-6.046875-6.046875-17.199219-4.703125-24.902343 3-7.707032 7.707032-9.050782 18.859375-3.003907 24.90625 6.050781 6.050782 17.199219 4.707032 24.90625-3zm0 0"/></g></svg>