<svg id="Capa_1" enable-background="new 0 0 512 512" height="512" viewBox="0 0 512 512" width="512" xmlns="http://www.w3.org/2000/svg"><g><g><g><g><path d="m317.811 512h-123.622c-34.137 0-61.811-27.674-61.811-61.811v-51.509c0-17.069 13.837-30.905 30.905-30.905l92.717-10.302 92.716 10.302c17.069 0 30.905 13.837 30.905 30.905v51.509c.001 34.137-27.673 61.811-61.81 61.811z" fill="#a0f0f2"/></g></g></g><g><g><g><path d="m214.793 450.189v-51.509c0-17.069 13.837-30.905 30.905-30.905v-9.157l-82.414 9.157c-17.069 0-30.905 13.837-30.905 30.905v51.509c0 34.137 27.674 61.811 61.811 61.811h82.414c-34.138 0-61.811-27.674-61.811-61.811z" fill="#7de2e2"/></g></g></g><g><g><g><path d="m348.716 305.964-92.716 10.302-92.716-10.302c-17.069 0-30.905-13.837-30.905-30.905 0-17.069 13.837-30.905 30.905-30.905l92.716-10.303 92.716 10.302c17.069 0 30.905 13.837 30.905 30.905.001 17.069-13.836 30.906-30.905 30.906z" fill="#a0f0f2"/></g></g></g><g><g><g><path d="m245.698 244.153v-9.157l-82.414 9.157c-17.069 0-30.905 13.837-30.905 30.905s13.837 30.905 30.905 30.905l82.414 9.157v-9.157c-17.069 0-30.905-13.837-30.905-30.905s13.837-30.905 30.905-30.905z" fill="#7de2e2"/></g></g></g><g><g><g><path d="m304.924 106.738c-6.942-9.095-10.703-20.219-10.703-31.661v-22.724h-76.442v22.724c0 11.442-3.76 22.566-10.703 31.661-7.106 9.309-17.147 15.922-28.481 18.868-26.588 6.911-46.217 31.077-46.217 59.827v27.815c0 17.069 13.837 30.905 30.905 30.905h185.433c17.069 0 30.905-13.837 30.905-30.905v-27.815c0-28.751-19.629-52.917-46.217-59.827-11.334-2.946-21.375-9.559-28.48-18.868z" fill="#bdfaff"/></g></g></g><g><g><g><path d="m214.793 213.247v-27.815c0-34.137 27.674-61.811 61.811-61.811h50.716c-8.827-3.477-16.592-9.279-22.396-16.884-6.942-9.095-10.703-20.219-10.703-31.661v-22.723h-76.442v22.724c0 11.442-3.76 22.566-10.703 31.661-7.106 9.309-17.147 15.922-28.481 18.868-26.588 6.911-46.217 31.077-46.217 59.827v27.815c0 17.069 13.837 30.905 30.905 30.905h82.414c-17.067 0-30.904-13.837-30.904-30.906z" fill="#a0f0f2"/></g></g></g><g><g><g><path d="m297.207 61.811h-82.414c-11.379 0-20.604-9.225-20.604-20.604v-20.603c0-11.379 9.225-20.604 20.604-20.604h82.414c11.379 0 20.604 9.225 20.604 20.604v20.604c0 11.378-9.225 20.603-20.604 20.603z" fill="#5e9cd3"/></g></g></g><g><g><g><path d="m235.396 41.207v-20.603c0-11.379 9.225-20.604 20.604-20.604h-41.207c-11.379 0-20.604 9.225-20.604 20.604v20.604c0 11.379 9.225 20.604 20.604 20.604h41.207c-11.379-.001-20.604-9.226-20.604-20.605z" fill="#4a88c6"/></g></g></g><g><g><g><path d="m348.716 367.775h-185.432c-17.069 0-30.905-13.837-30.905-30.905 0-17.069 13.837-30.905 30.905-30.905h185.433c17.069 0 30.905 13.837 30.905 30.905 0 17.068-13.837 30.905-30.906 30.905z" fill="#bdfaff"/></g></g></g><g><g><g><path d="m214.793 336.869c0-17.069 13.837-30.905 30.905-30.905h-82.414c-17.069 0-30.905 13.837-30.905 30.905 0 17.069 13.837 30.905 30.905 30.905h82.414c-17.068.001-30.905-13.836-30.905-30.905z" fill="#a0f0f2"/></g></g></g><g><g><g><g><path d="m191.667 194.881c-4.142 0-7.5-3.358-7.5-7.5v-12.362c0-4.142 3.358-7.5 7.5-7.5s7.5 3.358 7.5 7.5v12.362c0 4.142-3.358 7.5-7.5 7.5z" fill="#495560"/></g></g></g><g><g><g><path d="m320.333 194.881c-4.142 0-7.5-3.358-7.5-7.5v-12.362c0-4.142 3.358-7.5 7.5-7.5s7.5 3.358 7.5 7.5v12.362c0 4.142-3.357 7.5-7.5 7.5z" fill="#495560"/></g></g></g><g><g><g><path d="m256 202.24c-8.668 0-16.911-3.754-22.615-10.3-2.721-3.123-2.396-7.86.727-10.582 3.123-2.721 7.86-2.396 10.582.727 2.854 3.275 6.976 5.154 11.307 5.154s8.452-1.879 11.307-5.154c2.721-3.124 7.459-3.449 10.582-.727 3.123 2.721 3.448 7.459.727 10.582-5.706 6.546-13.949 10.3-22.617 10.3z" fill="#495560"/></g></g></g></g></g></svg>