<svg id="Capa_1" enable-background="new 0 0 512 512" height="512" viewBox="0 0 512 512" width="512" xmlns="http://www.w3.org/2000/svg"><g><g><g><path d="m152.231 91.55 5.522-45.737c2.941-24.361-16.077-45.813-40.615-45.813-20.698 0-38.135 15.458-40.616 36.007l-49.107 406.774c-4.444 36.807 24.29 69.219 61.365 69.219h334.44c37.075 0 65.809-32.412 61.365-69.219l-49.107-406.774c-2.481-20.549-19.918-36.007-40.616-36.007-24.538 0-43.556 21.452-40.615 45.813l5.521 45.734c1.905 15.776-15.5 26.306-28.787 17.59-5.233-3.433-11.442-6.12-21.159-6.12-26.908 0-26.908 20.604-53.816 20.604-26.912 0-26.912-20.604-53.824-20.604-9.721 0-15.931 2.688-21.166 6.123-13.284 8.717-30.689-1.815-28.785-17.59z" fill="#a0f0f2"/></g></g><g><g><g><path d="m109.829 442.781 42.402-351.231 5.522-45.737c2.941-24.361-16.077-45.813-40.615-45.813-20.698 0-38.135 15.459-40.616 36.007l-49.107 406.774c-4.444 36.807 24.29 69.219 61.365 69.219h82.414c-37.074 0-65.808-32.412-61.365-69.219z" fill="#7de2e2"/></g></g></g><g><g><g><g><g><ellipse cx="174.042" cy="215.121" fill="#ffa1af" rx="30.241" ry="24.082"/></g></g></g><g><g><g><ellipse cx="337.958" cy="215.121" fill="#ffa1af" rx="30.241" ry="24.082"/></g></g></g></g><g><g><g><path d="m191.667 199.438c-4.142 0-7.5-3.358-7.5-7.5v-12.362c0-4.142 3.358-7.5 7.5-7.5s7.5 3.358 7.5 7.5v12.362c0 4.143-3.358 7.5-7.5 7.5z" fill="#495560"/></g></g></g><g><g><g><path d="m320.333 199.438c-4.142 0-7.5-3.358-7.5-7.5v-12.362c0-4.142 3.358-7.5 7.5-7.5s7.5 3.358 7.5 7.5v12.362c0 4.143-3.357 7.5-7.5 7.5z" fill="#495560"/></g></g></g><g><g><g><path d="m256 206.798c-8.667 0-16.911-3.754-22.615-10.299-2.722-3.123-2.396-7.86.726-10.582s7.859-2.397 10.582.726c2.855 3.276 6.977 5.155 11.307 5.155s8.452-1.879 11.307-5.155c2.721-3.123 7.458-3.448 10.582-.726 3.123 2.721 3.448 7.459.726 10.582-5.704 6.545-13.948 10.299-22.615 10.299z" fill="#495560"/></g></g></g></g><g fill="#fff"><path d="m267.81 298.534 12.35 21.391-6.651-2.898c-3.799-1.657-8.217.083-9.872 3.879-1.655 3.797.083 8.217 3.879 9.872l27.528 11.995c.958.417 1.979.625 2.996.625 1.299 0 2.595-.337 3.75-1.005 2.061-1.19 3.435-3.287 3.703-5.652l3.377-29.838c.466-4.116-2.493-7.83-6.609-8.296-4.114-.462-7.83 2.493-8.296 6.609l-.816 7.209-12.35-21.39c-5.08-8.799-14.178-14.052-24.338-14.052-10.159 0-19.258 5.253-24.338 14.052l-13.363 23.146c-2.071 3.587-.842 8.174 2.745 10.245 3.586 2.071 8.174.841 10.245-2.745l13.363-23.146c2.369-4.103 6.611-6.552 11.349-6.552 4.737-.001 8.979 2.449 11.348 6.551z"/><path d="m332.379 380.372-13.363-23.146c-2.071-3.588-6.659-4.816-10.245-2.745-3.587 2.071-4.816 6.658-2.745 10.245l13.363 23.146c2.369 4.103 2.369 9.001 0 13.104-2.368 4.103-6.611 6.552-11.348 6.552h-24.699l5.835-4.311c3.332-2.461 4.037-7.157 1.576-10.489-2.461-3.333-7.158-4.037-10.489-1.576l-24.152 17.843c-1.914 1.414-3.043 3.652-3.043 6.032s1.129 4.618 3.043 6.032l24.152 17.843c1.341.991 2.902 1.468 4.451 1.468 2.298 0 4.567-1.053 6.038-3.044 2.461-3.332 1.756-8.027-1.576-10.489l-5.835-4.311h24.699c10.16 0 19.259-5.253 24.339-14.052 5.079-8.797 5.079-19.303-.001-28.102z"/><path d="m231.687 407.527h-26.727c-4.737 0-8.98-2.449-11.348-6.552-2.369-4.103-2.369-9.001 0-13.104l12.35-21.39.816 7.209c.434 3.83 3.679 6.658 7.443 6.657.282 0 .566-.016.853-.048 4.116-.466 7.075-4.18 6.609-8.296l-3.377-29.838c-.268-2.365-1.642-4.462-3.703-5.652-2.06-1.189-4.563-1.331-6.746-.38l-27.529 11.995c-3.797 1.654-5.535 6.074-3.88 9.871 1.655 3.798 6.076 5.538 9.871 3.88l6.652-2.898-12.35 21.391c-5.08 8.799-5.08 19.305 0 28.104s14.179 14.052 24.339 14.052h26.727c4.142 0 7.5-3.358 7.5-7.5s-3.358-7.501-7.5-7.501z"/></g></g></svg>