<svg height="512pt" viewBox="-104 0 512 512" width="512pt" xmlns="http://www.w3.org/2000/svg"><path d="m152.117188 387.082031-101.542969 20.40625v60.0625l101.542969 22.226563 101.542968-22.226563v-60.0625zm0 0" fill="#f6d78f"/><path d="m81.480469 467.550781v-60.0625l86.089843-17.300781-15.453124-3.105469-101.542969 20.40625v60.0625l101.542969 22.226563 15.453124-3.382813zm0 0" fill="#e9c16e"/><path d="m276.238281 0h-248.246093c-15.109376 0-27.363282 12.25-27.363282 27.363281v47.417969l151.488282 30.859375 151.484374-30.859375v-47.417969c0-15.113281-12.25-27.363281-27.363281-27.363281zm0 0" fill="#f6d78f"/><path d="m31.535156 74.78125v-47.417969c0-15.113281 12.25-27.363281 27.363282-27.363281h-30.90625c-15.109376 0-27.363282 12.25-27.363282 27.363281v47.417969l151.488282 30.859375 15.453124-3.148437zm0 0" fill="#e9c16e"/><path d="m.628906 74.78125s-10.023437 272.734375 49.949219 332.707031h203.078125c59.972656-59.972656 49.945312-332.707031 49.945312-332.707031zm0 0" fill="#addfea"/><path d="m31.535156 74.78125h-30.90625s-10.023437 272.734375 49.949219 332.707031h30.902344c-59.96875-59.972656-49.945313-332.707031-49.945313-332.707031zm0 0" fill="#8dcdd7"/><path d="m265.203125 220.328125c-5.15625-9.195313-7.925781-19.53125-8.058594-30.070313l-.199219-16.265624-13.988281-8.304688c-9.0625-5.382812-16.628906-12.953125-22.011719-22.015625l-8.308593-13.984375-16.261719-.203125c-10.539062-.128906-20.878906-2.898437-30.070312-8.054687l-14.1875-7.960938-14.1875 7.960938c-9.191407 5.15625-19.53125 7.925781-30.070313 8.054687l-16.265625.203125-8.304688 13.984375c-5.382812 9.0625-12.953124 16.632813-22.015624 22.015625l-13.984376 8.304688-.203124 16.265624c-.128907 10.539063-2.898438 20.878907-8.054688 30.070313l-7.960938 14.1875 7.960938 14.183594c5.15625 9.195312 7.925781 19.53125 8.054688 30.074219l.203124 16.261718 13.984376 8.308594c9.0625 5.382812 16.632812 12.949219 22.015624 22.011719l8.304688 13.984375 16.265625.203125c10.539063.132812 20.878906 2.902343 30.070313 8.058593l14.1875 7.957032 14.1875-7.957032c9.191406-5.15625 19.53125-7.929687 30.070312-8.058593l16.261719-.203125 8.308593-13.984375c5.382813-9.0625 12.949219-16.628907 22.011719-22.011719l13.988281-8.308594.199219-16.261718c.132813-10.542969 2.902344-20.878907 8.058594-30.074219l7.957031-14.183594zm0 0" fill="#f29e77"/><path d="m233.914062 234.515625c0 45.175781-36.621093 81.796875-81.796874 81.796875-45.175782 0-81.796876-36.621094-81.796876-81.796875s36.621094-81.796875 81.796876-81.796875c45.175781 0 81.796874 36.621094 81.796874 81.796875zm0 0" fill="#f6d78f"/><g fill="#464d57"><path d="m111.140625 237.929688c-4.269531 0-7.726563-3.460938-7.726563-7.726563v-7.417969c0-4.265625 3.457032-7.726562 7.726563-7.726562 4.265625 0 7.726563 3.460937 7.726563 7.726562v7.417969c0 4.265625-3.460938 7.726563-7.726563 7.726563zm0 0"/><path d="m193.09375 237.929688c-4.269531 0-7.726562-3.460938-7.726562-7.726563v-7.417969c0-4.265625 3.457031-7.726562 7.726562-7.726562 4.265625 0 7.726562 3.460937 7.726562 7.726562v7.417969c0 4.265625-3.460937 7.726563-7.726562 7.726563zm0 0"/><path d="m152.117188 241.886719c-6.171876 0-11.980469-2.59375-15.929688-7.117188-2.8125-3.210937-2.484375-8.089843.730469-10.902343 3.210937-2.808594 8.09375-2.480469 10.902343.734374 1.019532 1.164063 2.582032 1.832032 4.296876 1.832032 1.710937 0 3.277343-.667969 4.296874-1.832032 2.804688-3.214843 7.6875-3.542968 10.902344-.734374 3.210938 2.8125 3.539063 7.691406.730469 10.902343-3.953125 4.523438-9.757813 7.117188-15.929687 7.117188zm0 0"/></g><path d="m253.660156 467.550781v11.261719c0 18.328125-14.859375 33.1875-33.1875 33.1875h-136.714844c-18.328124 0-33.183593-14.859375-33.183593-33.1875v-11.261719zm0 0" fill="#f29e77"/><path d="m81.480469 478.816406v-11.265625h-30.90625v11.265625c0 18.328125 14.855469 33.183594 33.183593 33.183594h30.90625c-18.328124 0-33.183593-14.855469-33.183593-33.183594zm0 0" fill="#ed906b"/></svg>