<?xml version="1.0" encoding="utf-8"?>
<!-- Generator: Adobe Illustrator 26.2.1, SVG Export Plug-In . SVG Version: 6.00 Build 0)  -->
<svg version="1.1" id="Layer_1" xmlns="http://www.w3.org/2000/svg" xmlns:xlink="http://www.w3.org/1999/xlink" x="0px" y="0px"
	 viewBox="0 0 1080 1080" style="enable-background:new 0 0 1080 1080;" xml:space="preserve">
<g id="Layer_1_00000080922231108289918230000006277721060349302933_">
</g>
<g id="beach-ball_icon">
</g>
<g id="dolphin">
</g>
<g id="potential_versions">
</g>
<g id="w_x2F__text">
</g>
<g id="no_text">
</g>
<g id="BB__x2B__dolphin">
	<g>
		<path d="M1044.3,577.7c-23.8-31-55.9-51-96.4-60.2c35.2-9.8,63.4-28.2,84.6-55.3c21.2-27.1,31.8-60.8,31.8-101.2
			c0-56.8-20.1-100.8-60.2-132.1c-40.1-31.3-95.4-47-165.8-47H357.5v0.3c-2.4,0-4.8-0.1-7.2-0.1H19.6V872H361
			c5.6,0,11.1-0.1,16.5-0.3h471.6c73,0,129.8-16.6,170.2-49.9c40.4-33.3,60.6-79.2,60.6-138C1080,644.1,1068.1,608.7,1044.3,577.7z
			 M203.1,384.3c0,0,18,0,38.3,0c18.6,0,44.9,0,59.1-12.1c-3.2-0.6-6.6-16.4-30.5-15.5c-1.3,0.1-3.9-2.7-4-5.3
			c0-0.6,0.1-2.2,2.1-4.2c23.9-23.7,47.8-27.5,47.8-27.5c26.3-3.6,48.1,6.7,59.1,13.1c31.9-13.3,74.9-28.8,127.1-40.5
			c35.9-8.1,72.8-16.4,121.6-16.4c31.9,0,80,3.5,136.9,21.9c-100.7-17.4-174-5.6-214.7,4.4c-60.4,14.8-130.7,45.7-149,53.7
			c-20.5,9-38.5,20.4-50.4,26.3c1.9,0.6,17,5.6,25.2,12c6.5,5.1,7,7.1,11,17.5c1.5,4.1,6.1,17.9,1.1,34c-5.9,19-22.5,28.7-29.6,32.9
			c-15.7,9.2-33.5,13.7-59.1,14.2c-49.3,1.1-92,0-92,0L203.1,384.3L203.1,384.3z M811,717.1H699.4V591.9H810
			c23.5,0,41.6,5.5,54.3,16.6s19.1,27.1,19.1,47.9C883.4,696.9,859.2,717.1,811,717.1z M866.9,433.6c-25.1,8.3-59.1,9.8-59.1,9.8
			s-84.3,1.4-108.4,3.3c2.5,25.9,4.1,76.4-21.9,99.7c-2.5,2.2-19.5,17.5-25.3,13.4c-2.3-1.6-2.2-5.8-1.7-9.3
			c0.3-6.8,0.7-30-15.4-52.2c-14.6-20.1-34-27.5-40.8-29.7c-24.7,4.3-52.5,11.1-82.1,21.9c-75.8,27.8-130.1,69.8-164.3,101.9
			c6,4.7,20.6,17.4,27.4,39.4c2.1,7,9,30.5-3.3,54.8c-7.7,15.2-19.3,23.7-25.2,27.4l-141.3,3.3v-126c64.7-4.8,78.7-3.9,78.9-2.2
			c0.2,1.9-16.5,2.8-31.8,12c-24.6,14.8-34.2,44.3-38.3,67.9c5.8-9.4,18-26.6,39.8-39.8c15.9-9.6,30.9-13.5,40.8-15.2
			c8.4-13.4,21.7-32.3,41.2-52c14-14.2,26.6-24.1,51.3-42c39-28.3,58-43.1,85.4-59.2c17.1-10.1,44-25.6,80-39.4
			c72.3-27.7,134.6-30.3,147.9-30.7c13.6-0.4,26.1,0.4,51.2-0.4c29.8-1,39.4-2.6,48.4-9.4c9.3-7.1,19.1-20.6,17.5-35.1
			c-1.1-10.2-7.5-17.5-14.2-25.2c-7.1-8.1-14.5-13.3-19.7-16.4c6.7,1.6,16.4,4.9,26.3,12.1c19.7,14.3,26.4,34.3,28.5,41.6
			c6.2,0.8,17.8,1.2,30.7,7.7c8.8,4.4,20.8,12.1,20.8,31.8C889.9,420.4,880,429.2,866.9,433.6z"/>
	</g>
</g>
<g id="friendly_logo">
</g>
<g id="new_logo_design_x3F_">
</g>
</svg>
